<mxfile host="drawio-plugin" modified="2022-07-12T00:15:13.928Z" agent="5.0 (Macintosh; Intel Mac OS X 12_4_0) AppleWebKit/537.36 (KHTML, like Gecko) Chrome/89.0.4389.114 Safari/537.36" etag="6F2M4w8yC--qX97DRnb1" version="15.5.4" type="embed" pages="3"><diagram id="mWWCFk9HNQBTABtMWuh6" name="Page-1"><mxGraphModel dx="558" dy="794" grid="1" gridSize="10" guides="1" tooltips="1" connect="1" arrows="1" fold="1" page="1" pageScale="1" pageWidth="850" pageHeight="1100" math="0" shadow="0"><root><mxCell id="0"/><mxCell id="1" parent="0"/><mxCell id="QbOt5xrSMMe182ewnx-t-121" value="" style="rounded=0;whiteSpace=wrap;html=1;shadow=0;glass=0;sketch=0;fontFamily=Ubuntu Mono;fontSource=https%3A%2F%2Ffonts.googleapis.com%2Fcss%3Ffamily%3DUbuntu%2BMono;fontSize=16;fontColor=default;strokeColor=#999999;fillColor=none;dashed=1;strokeWidth=2;" parent="1" vertex="1"><mxGeometry x="30" y="160" width="627.5" height="790" as="geometry"/></mxCell><mxCell id="QbOt5xrSMMe182ewnx-t-54" value="" style="rounded=0;whiteSpace=wrap;html=1;shadow=0;glass=0;sketch=0;fontFamily=Ubuntu Mono;fontSource=https%3A%2F%2Ffonts.googleapis.com%2Fcss%3Ffamily%3DUbuntu%2BMono;fontSize=16;strokeColor=#808080;fillColor=none;strokeWidth=2;dashed=1;dashPattern=1 1;" parent="1" vertex="1"><mxGeometry x="665" y="230" width="175" height="180" as="geometry"/></mxCell><mxCell id="QbOt5xrSMMe182ewnx-t-8" value="" style="sketch=0;outlineConnect=0;fontColor=#232F3E;gradientColor=none;fillColor=#808080;strokeColor=none;dashed=0;verticalLabelPosition=bottom;verticalAlign=top;align=center;html=1;fontSize=12;fontStyle=0;aspect=fixed;pointerEvents=1;shape=mxgraph.aws4.internet_alt2;rounded=1;fontFamily=Ubuntu Mono;fontSource=https%3A%2F%2Ffonts.googleapis.com%2Fcss%3Ffamily%3DUbuntu%2BMono;strokeWidth=2;" parent="1" vertex="1"><mxGeometry x="5" y="645.5" width="40" height="40" as="geometry"/></mxCell><mxCell id="QbOt5xrSMMe182ewnx-t-25" value="" style="rounded=0;whiteSpace=wrap;html=1;fontFamily=Ubuntu Mono;fontSource=https%3A%2F%2Ffonts.googleapis.com%2Fcss%3Ffamily%3DUbuntu%2BMono;fontSize=16;strokeColor=#6D1F00;fillColor=#DAB486;dashed=1;strokeWidth=2;fontColor=#ffffff;" parent="1" vertex="1"><mxGeometry x="90" y="190" width="490" height="740" as="geometry"/></mxCell><mxCell id="QbOt5xrSMMe182ewnx-t-26" value="&lt;font color=&quot;#000000&quot;&gt;prod-vcn&lt;/font&gt;" style="text;html=1;resizable=0;autosize=1;align=center;verticalAlign=middle;points=[];fillColor=none;strokeColor=none;rounded=0;fontFamily=Ubuntu Mono;fontSource=https%3A%2F%2Ffonts.googleapis.com%2Fcss%3Ffamily%3DUbuntu%2BMono;fontSize=16;fontColor=default;" parent="1" vertex="1"><mxGeometry x="90" y="190" width="80" height="20" as="geometry"/></mxCell><mxCell id="QbOt5xrSMMe182ewnx-t-124" style="edgeStyle=orthogonalEdgeStyle;curved=1;rounded=0;orthogonalLoop=1;jettySize=auto;html=1;exitX=0;exitY=0.75;exitDx=0;exitDy=0;dashed=1;fontFamily=Ubuntu Mono;fontSource=https%3A%2F%2Ffonts.googleapis.com%2Fcss%3Ffamily%3DUbuntu%2BMono;fontSize=16;fontColor=default;startArrow=none;startFill=0;elbow=vertical;" parent="1" source="QbOt5xrSMMe182ewnx-t-27" edge="1"><mxGeometry relative="1" as="geometry"><mxPoint x="124.6190476190477" y="724.8571428571429" as="targetPoint"/></mxGeometry></mxCell><mxCell id="QbOt5xrSMMe182ewnx-t-27" value="" style="rounded=0;whiteSpace=wrap;html=1;fontFamily=Ubuntu Mono;fontSource=https%3A%2F%2Ffonts.googleapis.com%2Fcss%3Ffamily%3DUbuntu%2BMono;fontSize=16;strokeColor=#8F7658;fillColor=#88DCAB;dashed=1;strokeWidth=2;" parent="1" vertex="1"><mxGeometry x="125" y="230" width="435" height="660" as="geometry"/></mxCell><mxCell id="QbOt5xrSMMe182ewnx-t-28" value="&lt;font color=&quot;#000000&quot;&gt;prod-subnet1&lt;/font&gt;" style="text;html=1;resizable=0;autosize=1;align=center;verticalAlign=middle;points=[];fillColor=none;strokeColor=none;rounded=0;fontFamily=Ubuntu Mono;fontSource=https%3A%2F%2Ffonts.googleapis.com%2Fcss%3Ffamily%3DUbuntu%2BMono;fontSize=16;fontColor=default;" parent="1" vertex="1"><mxGeometry x="125" y="230" width="110" height="20" as="geometry"/></mxCell><mxCell id="QbOt5xrSMMe182ewnx-t-33" style="edgeStyle=none;rounded=0;orthogonalLoop=1;jettySize=auto;html=1;fontFamily=Ubuntu Mono;fontSource=https%3A%2F%2Ffonts.googleapis.com%2Fcss%3Ffamily%3DUbuntu%2BMono;fontSize=16;fontColor=default;startArrow=classic;startFill=1;strokeWidth=2;" parent="1" source="QbOt5xrSMMe182ewnx-t-29" target="QbOt5xrSMMe182ewnx-t-8" edge="1"><mxGeometry relative="1" as="geometry"/></mxCell><mxCell id="QbOt5xrSMMe182ewnx-t-29" value="" style="fillColor=#999999;verticalLabelPosition=bottom;sketch=0;html=1;strokeColor=#ffffff;verticalAlign=top;align=center;points=[[0.145,0.145,0],[0.5,0,0],[0.855,0.145,0],[1,0.5,0],[0.855,0.855,0],[0.5,1,0],[0.145,0.855,0],[0,0.5,0]];pointerEvents=1;shape=mxgraph.cisco_safe.compositeIcon;bgIcon=ellipse;resIcon=mxgraph.cisco_safe.capability.routing;rounded=1;fontFamily=Ubuntu Mono;fontSource=https%3A%2F%2Ffonts.googleapis.com%2Fcss%3Ffamily%3DUbuntu%2BMono;fontSize=16;fontColor=default;strokeWidth=2;" parent="1" vertex="1"><mxGeometry x="75" y="644" width="43" height="43" as="geometry"/></mxCell><mxCell id="QbOt5xrSMMe182ewnx-t-36" value="" style="rounded=0;whiteSpace=wrap;html=1;fontFamily=Ubuntu Mono;fontSource=https%3A%2F%2Ffonts.googleapis.com%2Fcss%3Ffamily%3DUbuntu%2BMono;fontSize=16;fontColor=#333333;strokeColor=#808055;fillColor=#82A2D3;shadow=1;strokeWidth=2;" parent="1" vertex="1"><mxGeometry x="145" y="270" width="390" height="390" as="geometry"/></mxCell><mxCell id="QbOt5xrSMMe182ewnx-t-37" value="webserver" style="text;html=1;resizable=0;autosize=1;align=center;verticalAlign=middle;points=[];fillColor=none;strokeColor=none;rounded=0;fontFamily=Ubuntu Mono;fontSource=https%3A%2F%2Ffonts.googleapis.com%2Fcss%3Ffamily%3DUbuntu%2BMono;fontSize=16;fontColor=default;" parent="1" vertex="1"><mxGeometry x="145" y="270" width="90" height="20" as="geometry"/></mxCell><mxCell id="QbOt5xrSMMe182ewnx-t-63" style="edgeStyle=orthogonalEdgeStyle;rounded=0;orthogonalLoop=1;jettySize=auto;html=1;dashed=1;fontFamily=Ubuntu Mono;fontSource=https%3A%2F%2Ffonts.googleapis.com%2Fcss%3Ffamily%3DUbuntu%2BMono;fontSize=16;fontColor=default;startArrow=none;startFill=0;elbow=vertical;curved=1;strokeWidth=2;" parent="1" source="QbOt5xrSMMe182ewnx-t-65" target="QbOt5xrSMMe182ewnx-t-117" edge="1"><mxGeometry relative="1" as="geometry"><mxPoint x="214" y="355" as="sourcePoint"/><mxPoint x="695" y="490" as="targetPoint"/><Array as="points"><mxPoint x="525" y="370"/><mxPoint x="525" y="485"/></Array></mxGeometry></mxCell><mxCell id="QbOt5xrSMMe182ewnx-t-98" style="edgeStyle=orthogonalEdgeStyle;rounded=0;orthogonalLoop=1;jettySize=auto;html=1;dashed=1;fontFamily=Ubuntu Mono;fontSource=https%3A%2F%2Ffonts.googleapis.com%2Fcss%3Ffamily%3DUbuntu%2BMono;fontSize=12;fontColor=default;startArrow=none;startFill=0;elbow=vertical;entryX=0.75;entryY=1;entryDx=0;entryDy=0;entryPerimeter=0;curved=1;strokeWidth=2;" parent="1" source="QbOt5xrSMMe182ewnx-t-39" target="QbOt5xrSMMe182ewnx-t-65" edge="1"><mxGeometry relative="1" as="geometry"/></mxCell><mxCell id="QbOt5xrSMMe182ewnx-t-39" value="" style="whiteSpace=wrap;html=1;rounded=0;fontFamily=Ubuntu Mono;fontSource=https%3A%2F%2Ffonts.googleapis.com%2Fcss%3Ffamily%3DUbuntu%2BMono;fontSize=16;fontColor=default;strokeColor=#808080;fillColor=none;shadow=1;strokeWidth=2;" parent="1" vertex="1"><mxGeometry x="365" y="540" width="150" height="100" as="geometry"/></mxCell><mxCell id="QbOt5xrSMMe182ewnx-t-40" value="NGNINX&lt;br&gt;reverse-proxy" style="text;html=1;resizable=0;autosize=1;align=center;verticalAlign=middle;points=[];fillColor=none;strokeColor=none;rounded=0;fontFamily=Ubuntu Mono;fontSource=https%3A%2F%2Ffonts.googleapis.com%2Fcss%3Ffamily%3DUbuntu%2BMono;fontSize=16;fontColor=default;shadow=0;glass=0;sketch=0;" parent="1" vertex="1"><mxGeometry x="375" y="540" width="120" height="40" as="geometry"/></mxCell><mxCell id="QbOt5xrSMMe182ewnx-t-45" value="" style="rounded=0;whiteSpace=wrap;html=1;shadow=1;glass=0;sketch=0;fontFamily=Ubuntu Mono;fontSource=https%3A%2F%2Ffonts.googleapis.com%2Fcss%3Ffamily%3DUbuntu%2BMono;fontSize=16;fontColor=default;strokeColor=#808080;fillColor=none;strokeWidth=2;" parent="1" vertex="1"><mxGeometry x="415" y="290" width="90" height="90" as="geometry"/></mxCell><mxCell id="QbOt5xrSMMe182ewnx-t-48" value="Postgres" style="text;html=1;resizable=0;autosize=1;align=center;verticalAlign=middle;points=[];fillColor=none;strokeColor=none;rounded=0;shadow=1;glass=0;sketch=0;fontFamily=Ubuntu Mono;fontSource=https%3A%2F%2Ffonts.googleapis.com%2Fcss%3Ffamily%3DUbuntu%2BMono;fontSize=16;fontColor=default;" parent="1" vertex="1"><mxGeometry x="415" y="290" width="80" height="20" as="geometry"/></mxCell><mxCell id="QbOt5xrSMMe182ewnx-t-64" style="edgeStyle=orthogonalEdgeStyle;rounded=0;orthogonalLoop=1;jettySize=auto;html=1;dashed=1;fontFamily=Ubuntu Mono;fontSource=https%3A%2F%2Ffonts.googleapis.com%2Fcss%3Ffamily%3DUbuntu%2BMono;fontSize=16;fontColor=default;startArrow=none;startFill=0;curved=1;exitX=0.25;exitY=1;exitDx=0;exitDy=0;exitPerimeter=0;strokeWidth=2;" parent="1" source="QbOt5xrSMMe182ewnx-t-76" target="QbOt5xrSMMe182ewnx-t-117" edge="1"><mxGeometry relative="1" as="geometry"><mxPoint x="770.000008641978" y="321.7777777777776" as="sourcePoint"/><mxPoint x="652.5238095238096" y="470" as="targetPoint"/></mxGeometry></mxCell><mxCell id="QbOt5xrSMMe182ewnx-t-59" value="" style="endArrow=classic;html=1;rounded=0;fontFamily=Ubuntu Mono;fontSource=https%3A%2F%2Ffonts.googleapis.com%2Fcss%3Ffamily%3DUbuntu%2BMono;fontSize=16;fontColor=default;elbow=vertical;exitX=-0.011;exitY=0.705;exitDx=0;exitDy=0;exitPerimeter=0;dashed=1;entryX=1.009;entryY=0.269;entryDx=0;entryDy=0;entryPerimeter=0;strokeWidth=2;" parent="1" source="QbOt5xrSMMe182ewnx-t-54" target="QbOt5xrSMMe182ewnx-t-36" edge="1"><mxGeometry width="50" height="50" relative="1" as="geometry"><mxPoint x="755" y="445" as="sourcePoint"/><mxPoint x="715" y="420" as="targetPoint"/></mxGeometry></mxCell><mxCell id="QbOt5xrSMMe182ewnx-t-61" value="SSH" style="edgeLabel;html=1;align=center;verticalAlign=middle;resizable=0;points=[];fontSize=16;fontFamily=Ubuntu Mono;fontColor=default;" parent="QbOt5xrSMMe182ewnx-t-59" vertex="1" connectable="0"><mxGeometry x="-0.1301" y="-2" relative="1" as="geometry"><mxPoint as="offset"/></mxGeometry></mxCell><mxCell id="QbOt5xrSMMe182ewnx-t-72" value="" style="group" parent="1" vertex="1" connectable="0"><mxGeometry x="165" y="310" width="150" height="100" as="geometry"/></mxCell><mxCell id="QbOt5xrSMMe182ewnx-t-38" value="" style="rounded=0;whiteSpace=wrap;html=1;fontFamily=Ubuntu Mono;fontSource=https%3A%2F%2Ffonts.googleapis.com%2Fcss%3Ffamily%3DUbuntu%2BMono;fontSize=16;fontColor=default;strokeColor=#808080;fillColor=none;sketch=0;shadow=1;glass=0;strokeWidth=2;" parent="QbOt5xrSMMe182ewnx-t-72" vertex="1"><mxGeometry width="150" height="100" as="geometry"/></mxCell><mxCell id="QbOt5xrSMMe182ewnx-t-41" value="nodejs" style="text;html=1;resizable=0;autosize=1;align=center;verticalAlign=middle;points=[];fillColor=none;strokeColor=none;rounded=0;shadow=0;glass=0;sketch=0;fontFamily=Ubuntu Mono;fontSource=https%3A%2F%2Ffonts.googleapis.com%2Fcss%3Ffamily%3DUbuntu%2BMono;fontSize=16;fontColor=default;" parent="QbOt5xrSMMe182ewnx-t-72" vertex="1"><mxGeometry x="5" width="60" height="20" as="geometry"/></mxCell><mxCell id="QbOt5xrSMMe182ewnx-t-65" value="app" style="html=1;outlineConnect=0;whiteSpace=wrap;fillColor=none;shape=mxgraph.archimate3.application;appType=comp;archiType=square;rounded=0;shadow=1;glass=0;sketch=0;fontFamily=Ubuntu Mono;fontSource=https%3A%2F%2Ffonts.googleapis.com%2Fcss%3Ffamily%3DUbuntu%2BMono;fontSize=16;" parent="QbOt5xrSMMe182ewnx-t-72" vertex="1"><mxGeometry x="10" y="26.5" width="130" height="55" as="geometry"/></mxCell><mxCell id="QbOt5xrSMMe182ewnx-t-77" value="dev" style="strokeWidth=2;html=1;shape=mxgraph.flowchart.database;whiteSpace=wrap;rounded=0;shadow=1;glass=0;sketch=0;fontFamily=Ubuntu Mono;fontSource=https%3A%2F%2Ffonts.googleapis.com%2Fcss%3Ffamily%3DUbuntu%2BMono;fontSize=16;fontColor=default;fillColor=none;" parent="1" vertex="1"><mxGeometry x="435" y="320" width="40" height="50" as="geometry"/></mxCell><mxCell id="QbOt5xrSMMe182ewnx-t-80" value="prod" style="strokeWidth=2;html=1;shape=mxgraph.flowchart.database;whiteSpace=wrap;rounded=0;shadow=1;glass=0;sketch=0;fontFamily=Ubuntu Mono;fontSource=https%3A%2F%2Ffonts.googleapis.com%2Fcss%3Ffamily%3DUbuntu%2BMono;fontSize=16;fontColor=default;fillColor=none;" parent="1" vertex="1"><mxGeometry x="430" y="440" width="40" height="50" as="geometry"/></mxCell><mxCell id="QbOt5xrSMMe182ewnx-t-81" value="Postgres" style="text;html=1;resizable=0;autosize=1;align=center;verticalAlign=middle;points=[];fillColor=none;strokeColor=none;rounded=0;shadow=1;glass=0;sketch=0;fontFamily=Ubuntu Mono;fontSource=https%3A%2F%2Ffonts.googleapis.com%2Fcss%3Ffamily%3DUbuntu%2BMono;fontSize=16;fontColor=default;" parent="1" vertex="1"><mxGeometry x="410" y="412.5" width="80" height="20" as="geometry"/></mxCell><mxCell id="QbOt5xrSMMe182ewnx-t-82" value="" style="rounded=0;whiteSpace=wrap;html=1;shadow=1;glass=0;sketch=0;fontFamily=Ubuntu Mono;fontSource=https%3A%2F%2Ffonts.googleapis.com%2Fcss%3Ffamily%3DUbuntu%2BMono;fontSize=16;fontColor=default;strokeColor=#808080;fillColor=none;strokeWidth=2;" parent="1" vertex="1"><mxGeometry x="405" y="410" width="90" height="90" as="geometry"/></mxCell><mxCell id="QbOt5xrSMMe182ewnx-t-87" value="" style="rounded=0;whiteSpace=wrap;html=1;shadow=0;glass=0;sketch=0;fontFamily=Ubuntu Mono;fontSource=https%3A%2F%2Ffonts.googleapis.com%2Fcss%3Ffamily%3DUbuntu%2BMono;fontSize=16;fontColor=default;strokeColor=#808080;fillColor=none;strokeWidth=2;" parent="1" vertex="1"><mxGeometry x="680" y="570" width="150" height="80" as="geometry"/></mxCell><mxCell id="QbOt5xrSMMe182ewnx-t-91" style="edgeStyle=orthogonalEdgeStyle;curved=1;rounded=0;orthogonalLoop=1;jettySize=auto;html=1;dashed=1;fontFamily=Ubuntu Mono;fontSource=https%3A%2F%2Ffonts.googleapis.com%2Fcss%3Ffamily%3DUbuntu%2BMono;fontSize=12;fontColor=default;startArrow=none;startFill=0;exitX=0;exitY=0.5;exitDx=0;exitDy=0;strokeWidth=2;" parent="1" source="QbOt5xrSMMe182ewnx-t-87" target="QbOt5xrSMMe182ewnx-t-39" edge="1"><mxGeometry relative="1" as="geometry"><mxPoint x="745" y="590" as="sourcePoint"/></mxGeometry></mxCell><mxCell id="QbOt5xrSMMe182ewnx-t-97" style="rounded=0;orthogonalLoop=1;jettySize=auto;html=1;dashed=1;fontFamily=Ubuntu Mono;fontSource=https%3A%2F%2Ffonts.googleapis.com%2Fcss%3Ffamily%3DUbuntu%2BMono;fontSize=12;fontColor=default;startArrow=none;startFill=0;exitX=0.445;exitY=0.995;exitDx=0;exitDy=0;exitPerimeter=0;edgeStyle=orthogonalEdgeStyle;curved=1;strokeWidth=2;" parent="1" source="QbOt5xrSMMe182ewnx-t-87" target="QbOt5xrSMMe182ewnx-t-93" edge="1"><mxGeometry relative="1" as="geometry"><mxPoint x="790" y="630" as="sourcePoint"/></mxGeometry></mxCell><mxCell id="QbOt5xrSMMe182ewnx-t-88" value="Frontend:&lt;br&gt;React" style="text;html=1;resizable=0;autosize=1;align=left;verticalAlign=middle;points=[];fillColor=none;strokeColor=none;rounded=0;shadow=1;glass=0;sketch=0;fontFamily=Ubuntu Mono;fontSource=https%3A%2F%2Ffonts.googleapis.com%2Fcss%3Ffamily%3DUbuntu%2BMono;fontSize=16;fontColor=default;" parent="1" vertex="1"><mxGeometry x="715" y="570" width="90" height="40" as="geometry"/></mxCell><mxCell id="QbOt5xrSMMe182ewnx-t-89" value="vadzimk.link" style="text;html=1;resizable=0;autosize=1;align=center;verticalAlign=middle;points=[];fillColor=none;strokeColor=none;rounded=0;shadow=1;glass=0;sketch=0;fontFamily=Ubuntu Mono;fontSource=https%3A%2F%2Ffonts.googleapis.com%2Fcss%3Ffamily%3DUbuntu%2BMono;fontSize=16;fontColor=default;" parent="1" vertex="1"><mxGeometry x="405" y="580" width="110" height="20" as="geometry"/></mxCell><mxCell id="QbOt5xrSMMe182ewnx-t-90" value="carshare.vadzimk.link" style="text;html=1;resizable=0;autosize=1;align=center;verticalAlign=middle;points=[];fillColor=none;strokeColor=none;rounded=0;shadow=1;glass=0;sketch=0;fontFamily=Ubuntu Mono;fontSource=https%3A%2F%2Ffonts.googleapis.com%2Fcss%3Ffamily%3DUbuntu%2BMono;fontSize=12;fontColor=default;" parent="1" vertex="1"><mxGeometry x="375" y="600" width="140" height="20" as="geometry"/></mxCell><mxCell id="QbOt5xrSMMe182ewnx-t-92" value="" style="rounded=0;whiteSpace=wrap;html=1;shadow=0;glass=0;sketch=0;fontFamily=Ubuntu Mono;fontSource=https%3A%2F%2Ffonts.googleapis.com%2Fcss%3Ffamily%3DUbuntu%2BMono;fontSize=12;fontColor=default;strokeColor=#808080;fillColor=none;strokeWidth=2;dashed=1;dashPattern=1 1;" parent="1" vertex="1"><mxGeometry x="667.5" y="780" width="170" height="110" as="geometry"/></mxCell><mxCell id="QbOt5xrSMMe182ewnx-t-93" value="Maptiler" style="text;html=1;resizable=0;autosize=1;align=center;verticalAlign=middle;points=[];fillColor=none;strokeColor=none;rounded=0;shadow=0;glass=0;sketch=0;fontFamily=Ubuntu Mono;fontSource=https%3A%2F%2Ffonts.googleapis.com%2Fcss%3Ffamily%3DUbuntu%2BMono;fontSize=16;fontColor=default;" parent="1" vertex="1"><mxGeometry x="702.5" y="780" width="80" height="20" as="geometry"/></mxCell><mxCell id="QbOt5xrSMMe182ewnx-t-95" value="api.maptiler.com" style="text;html=1;resizable=0;autosize=1;align=center;verticalAlign=middle;points=[];fillColor=none;strokeColor=none;rounded=0;shadow=1;glass=0;sketch=0;fontFamily=Ubuntu Mono;fontSource=https%3A%2F%2Ffonts.googleapis.com%2Fcss%3Ffamily%3DUbuntu%2BMono;fontSize=16;fontColor=default;" parent="1" vertex="1"><mxGeometry x="672.5" y="810" width="140" height="20" as="geometry"/></mxCell><mxCell id="QbOt5xrSMMe182ewnx-t-96" value="&lt;font style=&quot;font-size: 12px;&quot;&gt;Geocoding to street level,&lt;br style=&quot;&quot;&gt;map tiles - Openstreetmaps&lt;/font&gt;" style="text;html=1;resizable=0;autosize=1;align=left;verticalAlign=middle;points=[];fillColor=none;strokeColor=none;rounded=0;shadow=1;glass=0;sketch=0;fontFamily=Ubuntu Mono;fontSource=https%3A%2F%2Ffonts.googleapis.com%2Fcss%3Ffamily%3DUbuntu%2BMono;fontSize=16;fontColor=default;" parent="1" vertex="1"><mxGeometry x="667.5" y="830" width="170" height="50" as="geometry"/></mxCell><mxCell id="QbOt5xrSMMe182ewnx-t-99" style="edgeStyle=entityRelationEdgeStyle;rounded=0;orthogonalLoop=1;jettySize=auto;html=1;exitX=1;exitY=0.75;exitDx=0;exitDy=0;exitPerimeter=0;dashed=1;fontFamily=Ubuntu Mono;fontSource=https%3A%2F%2Ffonts.googleapis.com%2Fcss%3Ffamily%3DUbuntu%2BMono;fontSize=12;fontColor=default;startArrow=none;startFill=0;elbow=vertical;entryX=0;entryY=0.5;entryDx=0;entryDy=0;entryPerimeter=0;strokeWidth=2;" parent="1" source="QbOt5xrSMMe182ewnx-t-65" target="QbOt5xrSMMe182ewnx-t-80" edge="1"><mxGeometry relative="1" as="geometry"/></mxCell><mxCell id="QbOt5xrSMMe182ewnx-t-100" style="edgeStyle=orthogonalEdgeStyle;curved=1;rounded=0;orthogonalLoop=1;jettySize=auto;html=1;exitX=0;exitY=0.5;exitDx=0;exitDy=0;exitPerimeter=0;entryX=1;entryY=0.5;entryDx=0;entryDy=0;entryPerimeter=0;dashed=1;fontFamily=Ubuntu Mono;fontSource=https%3A%2F%2Ffonts.googleapis.com%2Fcss%3Ffamily%3DUbuntu%2BMono;fontSize=12;fontColor=default;startArrow=none;startFill=0;elbow=vertical;strokeWidth=2;" parent="1" source="QbOt5xrSMMe182ewnx-t-76" target="QbOt5xrSMMe182ewnx-t-77" edge="1"><mxGeometry relative="1" as="geometry"/></mxCell><mxCell id="QbOt5xrSMMe182ewnx-t-102" value="" style="html=1;outlineConnect=0;whiteSpace=wrap;fillColor=none;shape=mxgraph.archimate3.component;rounded=0;shadow=1;glass=0;sketch=0;fontFamily=Ubuntu Mono;fontSource=https%3A%2F%2Ffonts.googleapis.com%2Fcss%3Ffamily%3DUbuntu%2BMono;fontSize=12;fontColor=default;strokeColor=#808080;" parent="1" vertex="1"><mxGeometry x="795" y="615" width="20" height="25" as="geometry"/></mxCell><mxCell id="QbOt5xrSMMe182ewnx-t-103" value="react-leaflet" style="text;html=1;resizable=0;autosize=1;align=center;verticalAlign=middle;points=[];fillColor=none;strokeColor=none;rounded=0;shadow=1;glass=0;sketch=0;fontFamily=Ubuntu Mono;fontSource=https%3A%2F%2Ffonts.googleapis.com%2Fcss%3Ffamily%3DUbuntu%2BMono;fontSize=12;fontColor=default;" parent="1" vertex="1"><mxGeometry x="705" y="620" width="90" height="20" as="geometry"/></mxCell><mxCell id="QbOt5xrSMMe182ewnx-t-105" value="" style="rounded=0;whiteSpace=wrap;html=1;shadow=0;glass=0;sketch=0;fontFamily=Ubuntu Mono;fontSource=https%3A%2F%2Ffonts.googleapis.com%2Fcss%3Ffamily%3DUbuntu%2BMono;fontSize=12;fontColor=default;strokeColor=#808080;fillColor=none;strokeWidth=2;dashed=1;dashPattern=1 1;" parent="1" vertex="1"><mxGeometry x="595" y="60" width="190" height="80" as="geometry"/></mxCell><mxCell id="QbOt5xrSMMe182ewnx-t-106" value="Rapidapi" style="text;html=1;resizable=0;autosize=1;align=center;verticalAlign=middle;points=[];fillColor=none;strokeColor=none;rounded=0;shadow=1;glass=0;sketch=0;fontFamily=Ubuntu Mono;fontSource=https%3A%2F%2Ffonts.googleapis.com%2Fcss%3Ffamily%3DUbuntu%2BMono;fontSize=16;fontColor=default;" parent="1" vertex="1"><mxGeometry x="620" y="60" width="80" height="20" as="geometry"/></mxCell><mxCell id="QbOt5xrSMMe182ewnx-t-107" value="Nominarium" style="text;html=1;resizable=0;autosize=1;align=center;verticalAlign=middle;points=[];fillColor=none;strokeColor=none;rounded=0;shadow=1;glass=0;sketch=0;fontFamily=Ubuntu Mono;fontSource=https%3A%2F%2Ffonts.googleapis.com%2Fcss%3Ffamily%3DUbuntu%2BMono;fontSize=16;fontColor=default;" parent="1" vertex="1"><mxGeometry x="615" y="90" width="100" height="20" as="geometry"/></mxCell><mxCell id="QbOt5xrSMMe182ewnx-t-108" value="&lt;br style=&quot;font-size: 10px;&quot;&gt;    https://rapidapi.com/GeocodeSupport&lt;br&gt;&lt;div style=&quot;text-align: left;&quot;&gt;&lt;span style=&quot;background-color: initial;&quot;&gt;/api/forward-reverse-geocoding/&lt;/span&gt;&lt;/div&gt;  " style="text;html=1;resizable=0;autosize=1;align=center;verticalAlign=middle;points=[];fillColor=none;strokeColor=none;rounded=0;shadow=1;glass=0;sketch=0;fontFamily=Ubuntu Mono;fontSource=https%3A%2F%2Ffonts.googleapis.com%2Fcss%3Ffamily%3DUbuntu%2BMono;fontSize=10;fontColor=default;" parent="1" vertex="1"><mxGeometry x="605" y="100" width="190" height="40" as="geometry"/></mxCell><mxCell id="QbOt5xrSMMe182ewnx-t-109" style="edgeStyle=orthogonalEdgeStyle;curved=1;rounded=0;orthogonalLoop=1;jettySize=auto;html=1;exitX=0.5;exitY=0;exitDx=0;exitDy=0;exitPerimeter=0;entryX=0;entryY=0.5;entryDx=0;entryDy=0;dashed=1;fontFamily=Ubuntu Mono;fontSource=https%3A%2F%2Ffonts.googleapis.com%2Fcss%3Ffamily%3DUbuntu%2BMono;fontSize=10;fontColor=default;startArrow=none;startFill=0;elbow=vertical;strokeWidth=2;" parent="1" source="QbOt5xrSMMe182ewnx-t-65" target="QbOt5xrSMMe182ewnx-t-105" edge="1"><mxGeometry relative="1" as="geometry"/></mxCell><mxCell id="QbOt5xrSMMe182ewnx-t-113" value="" style="rounded=0;whiteSpace=wrap;html=1;shadow=0;glass=0;sketch=0;fontFamily=Ubuntu Mono;fontSource=https%3A%2F%2Ffonts.googleapis.com%2Fcss%3Ffamily%3DUbuntu%2BMono;fontSize=10;fontColor=default;strokeColor=#808080;fillColor=none;strokeWidth=2;" parent="1" vertex="1"><mxGeometry x="145" y="687" width="160" height="183" as="geometry"/></mxCell><mxCell id="QbOt5xrSMMe182ewnx-t-115" value="&lt;font style=&quot;font-size: 16px;&quot;&gt;&quot;instance0&quot;&lt;/font&gt;" style="text;html=1;resizable=0;autosize=1;align=center;verticalAlign=middle;points=[];fillColor=none;strokeColor=none;rounded=0;shadow=0;glass=0;sketch=0;fontFamily=Ubuntu Mono;fontSource=https%3A%2F%2Ffonts.googleapis.com%2Fcss%3Ffamily%3DUbuntu%2BMono;fontSize=10;fontColor=default;" parent="1" vertex="1"><mxGeometry x="140" y="690" width="100" height="20" as="geometry"/></mxCell><mxCell id="QbOt5xrSMMe182ewnx-t-117" value="&lt;font color=&quot;#808080&quot;&gt;Object&lt;br&gt;storage&lt;br&gt;&lt;font style=&quot;font-size: 16px;&quot;&gt;Bucket&lt;/font&gt;&lt;/font&gt;" style="sketch=0;outlineConnect=0;fontColor=#232F3E;gradientColor=none;strokeColor=#808080;fillColor=none;dashed=0;verticalLabelPosition=bottom;verticalAlign=top;align=center;html=1;fontSize=12;fontStyle=0;aspect=fixed;shape=mxgraph.aws4.resourceIcon;resIcon=mxgraph.aws4.bucket_with_objects;rounded=0;shadow=0;glass=0;fontFamily=Ubuntu Mono;fontSource=https%3A%2F%2Ffonts.googleapis.com%2Fcss%3Ffamily%3DUbuntu%2BMono;strokeWidth=2;" parent="1" vertex="1"><mxGeometry x="605" y="470" width="45" height="45" as="geometry"/></mxCell><mxCell id="QbOt5xrSMMe182ewnx-t-120" value="" style="endArrow=classic;startArrow=classic;html=1;rounded=0;fontFamily=Ubuntu Mono;fontSource=https%3A%2F%2Ffonts.googleapis.com%2Fcss%3Ffamily%3DUbuntu%2BMono;fontSize=16;fontColor=default;curved=1;elbow=vertical;exitX=0.855;exitY=0.145;exitDx=0;exitDy=0;exitPerimeter=0;strokeWidth=2;" parent="1" source="QbOt5xrSMMe182ewnx-t-29" target="QbOt5xrSMMe182ewnx-t-36" edge="1"><mxGeometry width="50" height="50" relative="1" as="geometry"><mxPoint x="475" y="630" as="sourcePoint"/><mxPoint x="525" y="580" as="targetPoint"/></mxGeometry></mxCell><mxCell id="QbOt5xrSMMe182ewnx-t-123" value="" style="endArrow=classic;startArrow=classic;html=1;rounded=0;fontFamily=Ubuntu Mono;fontSource=https%3A%2F%2Ffonts.googleapis.com%2Fcss%3Ffamily%3DUbuntu%2BMono;fontSize=16;fontColor=default;curved=1;elbow=vertical;entryX=0.01;entryY=0.191;entryDx=0;entryDy=0;entryPerimeter=0;strokeWidth=2;" parent="1" target="QbOt5xrSMMe182ewnx-t-113" edge="1"><mxGeometry width="50" height="50" relative="1" as="geometry"><mxPoint x="105" y="680" as="sourcePoint"/><mxPoint x="140" y="720" as="targetPoint"/></mxGeometry></mxCell><mxCell id="QbOt5xrSMMe182ewnx-t-125" value="OCI Compartment" style="text;html=1;resizable=0;autosize=1;align=center;verticalAlign=middle;points=[];fillColor=none;strokeColor=none;rounded=0;shadow=0;glass=0;sketch=0;fontFamily=Ubuntu Mono;fontSource=https%3A%2F%2Ffonts.googleapis.com%2Fcss%3Ffamily%3DUbuntu%2BMono;fontSize=16;fontColor=default;" parent="1" vertex="1"><mxGeometry x="30" y="160" width="140" height="20" as="geometry"/></mxCell><mxCell id="QbOt5xrSMMe182ewnx-t-74" value="" style="rounded=0;whiteSpace=wrap;html=1;fontFamily=Ubuntu Mono;fontSource=https%3A%2F%2Ffonts.googleapis.com%2Fcss%3Ffamily%3DUbuntu%2BMono;fontSize=16;fontColor=default;strokeColor=#808080;fillColor=none;sketch=0;shadow=0;glass=0;strokeWidth=2;" parent="1" vertex="1"><mxGeometry x="680" y="287.5" width="150" height="100" as="geometry"/></mxCell><mxCell id="QbOt5xrSMMe182ewnx-t-75" value="nodejs" style="text;html=1;resizable=0;autosize=1;align=center;verticalAlign=middle;points=[];fillColor=none;strokeColor=none;rounded=0;shadow=0;glass=0;sketch=0;fontFamily=Ubuntu Mono;fontSource=https%3A%2F%2Ffonts.googleapis.com%2Fcss%3Ffamily%3DUbuntu%2BMono;fontSize=16;fontColor=default;" parent="1" vertex="1"><mxGeometry x="685" y="287.5" width="60" height="20" as="geometry"/></mxCell><mxCell id="QbOt5xrSMMe182ewnx-t-51" value="Github Actions&lt;br&gt;Pipelines" style="text;html=1;resizable=0;autosize=1;align=left;verticalAlign=middle;points=[];fillColor=none;strokeColor=none;rounded=0;shadow=0;glass=0;sketch=0;fontFamily=Ubuntu Mono;fontSource=https%3A%2F%2Ffonts.googleapis.com%2Fcss%3Ffamily%3DUbuntu%2BMono;fontSize=16;fontColor=default;" parent="1" vertex="1"><mxGeometry x="667.5" y="230" width="130" height="40" as="geometry"/></mxCell><mxCell id="QbOt5xrSMMe182ewnx-t-76" value="app" style="html=1;outlineConnect=0;whiteSpace=wrap;fillColor=none;shape=mxgraph.archimate3.application;appType=comp;archiType=square;rounded=0;shadow=0;glass=0;sketch=0;fontFamily=Ubuntu Mono;fontSource=https%3A%2F%2Ffonts.googleapis.com%2Fcss%3Ffamily%3DUbuntu%2BMono;fontSize=16;fontColor=default;strokeColor=#808080;strokeWidth=2;" parent="1" vertex="1"><mxGeometry x="690" y="314" width="130" height="55" as="geometry"/></mxCell><mxCell id="QbOt5xrSMMe182ewnx-t-111" style="edgeStyle=orthogonalEdgeStyle;rounded=0;orthogonalLoop=1;jettySize=auto;html=1;entryX=0.795;entryY=1.086;entryDx=0;entryDy=0;entryPerimeter=0;dashed=1;fontFamily=Ubuntu Mono;fontSource=https%3A%2F%2Ffonts.googleapis.com%2Fcss%3Ffamily%3DUbuntu%2BMono;fontSize=10;fontColor=default;startArrow=none;startFill=0;curved=1;strokeWidth=2;exitX=0.75;exitY=0;exitDx=0;exitDy=0;exitPerimeter=0;" parent="1" source="QbOt5xrSMMe182ewnx-t-76" target="QbOt5xrSMMe182ewnx-t-108" edge="1"><mxGeometry relative="1" as="geometry"/></mxCell></root></mxGraphModel></diagram><diagram name="Copy of Page-1" id="PgIC4xDCNmVRnv3fsfwA"><mxGraphModel dx="1632" dy="864" grid="1" gridSize="10" guides="1" tooltips="1" connect="1" arrows="1" fold="1" page="1" pageScale="1" pageWidth="850" pageHeight="1100" math="0" shadow="0"><root><mxCell id="t73Z2NfIbOkJ45kzOtMT-0"/><mxCell id="t73Z2NfIbOkJ45kzOtMT-1" parent="t73Z2NfIbOkJ45kzOtMT-0"/><mxCell id="t73Z2NfIbOkJ45kzOtMT-2" value="" style="rounded=0;whiteSpace=wrap;html=1;shadow=0;glass=0;sketch=0;fontFamily=Ubuntu Mono;fontSource=https%3A%2F%2Ffonts.googleapis.com%2Fcss%3Ffamily%3DUbuntu%2BMono;fontSize=16;fontColor=default;strokeColor=#999999;fillColor=none;dashed=1;strokeWidth=2;" vertex="1" parent="t73Z2NfIbOkJ45kzOtMT-1"><mxGeometry x="30" y="160" width="627.5" height="790" as="geometry"/></mxCell><mxCell id="t73Z2NfIbOkJ45kzOtMT-3" value="" style="rounded=0;whiteSpace=wrap;html=1;shadow=0;glass=0;sketch=0;fontFamily=Ubuntu Mono;fontSource=https%3A%2F%2Ffonts.googleapis.com%2Fcss%3Ffamily%3DUbuntu%2BMono;fontSize=16;strokeColor=#808080;fillColor=none;strokeWidth=2;dashed=1;dashPattern=1 1;" vertex="1" parent="t73Z2NfIbOkJ45kzOtMT-1"><mxGeometry x="665" y="230" width="175" height="180" as="geometry"/></mxCell><mxCell id="t73Z2NfIbOkJ45kzOtMT-4" value="" style="sketch=0;outlineConnect=0;fontColor=#232F3E;gradientColor=none;fillColor=#808080;strokeColor=none;dashed=0;verticalLabelPosition=bottom;verticalAlign=top;align=center;html=1;fontSize=12;fontStyle=0;aspect=fixed;pointerEvents=1;shape=mxgraph.aws4.internet_alt2;rounded=1;fontFamily=Ubuntu Mono;fontSource=https%3A%2F%2Ffonts.googleapis.com%2Fcss%3Ffamily%3DUbuntu%2BMono;strokeWidth=2;" vertex="1" parent="t73Z2NfIbOkJ45kzOtMT-1"><mxGeometry x="5" y="645.5" width="40" height="40" as="geometry"/></mxCell><mxCell id="t73Z2NfIbOkJ45kzOtMT-5" value="" style="rounded=0;whiteSpace=wrap;html=1;fontFamily=Ubuntu Mono;fontSource=https%3A%2F%2Ffonts.googleapis.com%2Fcss%3Ffamily%3DUbuntu%2BMono;fontSize=16;strokeColor=#6D1F00;fillColor=#DAB486;dashed=1;strokeWidth=2;fontColor=#ffffff;" vertex="1" parent="t73Z2NfIbOkJ45kzOtMT-1"><mxGeometry x="90" y="190" width="490" height="740" as="geometry"/></mxCell><mxCell id="t73Z2NfIbOkJ45kzOtMT-6" value="&lt;font style=&quot;font-size: 14px;&quot; color=&quot;#000000&quot;&gt;prod-vcn&lt;/font&gt;" style="text;html=1;resizable=0;autosize=1;align=center;verticalAlign=middle;points=[];fillColor=none;strokeColor=none;rounded=0;fontFamily=Ubuntu Mono;fontSource=https%3A%2F%2Ffonts.googleapis.com%2Fcss%3Ffamily%3DUbuntu%2BMono;fontSize=16;fontColor=default;" vertex="1" parent="t73Z2NfIbOkJ45kzOtMT-1"><mxGeometry x="95" y="190" width="70" height="20" as="geometry"/></mxCell><mxCell id="t73Z2NfIbOkJ45kzOtMT-7" style="edgeStyle=orthogonalEdgeStyle;curved=1;rounded=0;orthogonalLoop=1;jettySize=auto;html=1;exitX=0;exitY=0.75;exitDx=0;exitDy=0;dashed=1;fontFamily=Ubuntu Mono;fontSource=https%3A%2F%2Ffonts.googleapis.com%2Fcss%3Ffamily%3DUbuntu%2BMono;fontSize=16;fontColor=default;startArrow=none;startFill=0;elbow=vertical;" edge="1" parent="t73Z2NfIbOkJ45kzOtMT-1" source="t73Z2NfIbOkJ45kzOtMT-8"><mxGeometry relative="1" as="geometry"><mxPoint x="124.6190476190477" y="724.8571428571429" as="targetPoint"/></mxGeometry></mxCell><mxCell id="t73Z2NfIbOkJ45kzOtMT-8" value="&lt;meta charset=&quot;utf-8&quot;&gt;&lt;b style=&quot;-webkit-font-smoothing: antialiased; color: rgb(0, 0, 0); font-family: Helvetica; font-size: 12px; font-style: normal; font-variant-ligatures: normal; font-variant-caps: normal; letter-spacing: normal; orphans: 2; text-align: center; text-indent: 0px; text-transform: none; widows: 2; word-spacing: 0px; -webkit-text-stroke-width: 0px; background-color: rgb(248, 249, 250); text-decoration-thickness: initial; text-decoration-style: initial; text-decoration-color: initial;&quot;&gt;&lt;font style=&quot;-webkit-font-smoothing: antialiased;&quot; data-font-src=&quot;https://fonts.googleapis.com/css?family=Ubuntu+Mono&quot; face=&quot;Ubuntu Mono&quot;&gt;html/atpools&lt;br style=&quot;-webkit-font-smoothing: antialiased;&quot;&gt;&lt;div style=&quot;-webkit-font-smoothing: antialiased; text-align: left;&quot;&gt;&lt;b style=&quot;-webkit-font-smoothing: antialiased; background-color: initial;&quot;&gt;html/...&lt;/b&gt;&lt;/div&gt;&lt;/font&gt;&lt;/b&gt;" style="rounded=0;whiteSpace=wrap;html=1;fontFamily=Ubuntu Mono;fontSource=https%3A%2F%2Ffonts.googleapis.com%2Fcss%3Ffamily%3DUbuntu%2BMono;fontSize=16;strokeColor=#8F7658;fillColor=#88DCAB;dashed=1;strokeWidth=2;" vertex="1" parent="t73Z2NfIbOkJ45kzOtMT-1"><mxGeometry x="125" y="230" width="435" height="660" as="geometry"/></mxCell><mxCell id="t73Z2NfIbOkJ45kzOtMT-9" value="&lt;font style=&quot;font-size: 14px;&quot; color=&quot;#000000&quot;&gt;prod-subnet1&lt;/font&gt;" style="text;html=1;resizable=0;autosize=1;align=center;verticalAlign=middle;points=[];fillColor=none;strokeColor=none;rounded=0;fontFamily=Ubuntu Mono;fontSource=https%3A%2F%2Ffonts.googleapis.com%2Fcss%3Ffamily%3DUbuntu%2BMono;fontSize=16;fontColor=default;" vertex="1" parent="t73Z2NfIbOkJ45kzOtMT-1"><mxGeometry x="130" y="230" width="100" height="20" as="geometry"/></mxCell><mxCell id="t73Z2NfIbOkJ45kzOtMT-10" style="edgeStyle=none;rounded=0;orthogonalLoop=1;jettySize=auto;html=1;fontFamily=Ubuntu Mono;fontSource=https%3A%2F%2Ffonts.googleapis.com%2Fcss%3Ffamily%3DUbuntu%2BMono;fontSize=16;fontColor=default;startArrow=classic;startFill=1;strokeWidth=2;" edge="1" parent="t73Z2NfIbOkJ45kzOtMT-1" source="t73Z2NfIbOkJ45kzOtMT-11" target="t73Z2NfIbOkJ45kzOtMT-4"><mxGeometry relative="1" as="geometry"/></mxCell><mxCell id="t73Z2NfIbOkJ45kzOtMT-11" value="" style="fillColor=#999999;verticalLabelPosition=bottom;sketch=0;html=1;strokeColor=#ffffff;verticalAlign=top;align=center;points=[[0.145,0.145,0],[0.5,0,0],[0.855,0.145,0],[1,0.5,0],[0.855,0.855,0],[0.5,1,0],[0.145,0.855,0],[0,0.5,0]];pointerEvents=1;shape=mxgraph.cisco_safe.compositeIcon;bgIcon=ellipse;resIcon=mxgraph.cisco_safe.capability.routing;rounded=1;fontFamily=Ubuntu Mono;fontSource=https%3A%2F%2Ffonts.googleapis.com%2Fcss%3Ffamily%3DUbuntu%2BMono;fontSize=16;fontColor=default;strokeWidth=2;" vertex="1" parent="t73Z2NfIbOkJ45kzOtMT-1"><mxGeometry x="75" y="644" width="43" height="43" as="geometry"/></mxCell><mxCell id="t73Z2NfIbOkJ45kzOtMT-12" value="" style="rounded=0;whiteSpace=wrap;html=1;fontFamily=Ubuntu Mono;fontSource=https%3A%2F%2Ffonts.googleapis.com%2Fcss%3Ffamily%3DUbuntu%2BMono;fontSize=16;fontColor=#333333;strokeColor=#808055;fillColor=#82A2D3;shadow=1;strokeWidth=2;" vertex="1" parent="t73Z2NfIbOkJ45kzOtMT-1"><mxGeometry x="145" y="270" width="390" height="390" as="geometry"/></mxCell><mxCell id="t73Z2NfIbOkJ45kzOtMT-13" value="&lt;font style=&quot;font-size: 14px;&quot;&gt;webserver&lt;/font&gt;" style="text;html=1;resizable=0;autosize=1;align=center;verticalAlign=middle;points=[];fillColor=none;strokeColor=none;rounded=0;fontFamily=Ubuntu Mono;fontSource=https%3A%2F%2Ffonts.googleapis.com%2Fcss%3Ffamily%3DUbuntu%2BMono;fontSize=16;fontColor=default;" vertex="1" parent="t73Z2NfIbOkJ45kzOtMT-1"><mxGeometry x="150" y="270" width="80" height="20" as="geometry"/></mxCell><mxCell id="t73Z2NfIbOkJ45kzOtMT-14" style="edgeStyle=orthogonalEdgeStyle;rounded=0;orthogonalLoop=1;jettySize=auto;html=1;dashed=1;fontFamily=Ubuntu Mono;fontSource=https%3A%2F%2Ffonts.googleapis.com%2Fcss%3Ffamily%3DUbuntu%2BMono;fontSize=16;fontColor=default;startArrow=none;startFill=0;elbow=vertical;curved=1;strokeWidth=2;exitX=1;exitY=1;exitDx=0;exitDy=0;exitPerimeter=0;" edge="1" parent="t73Z2NfIbOkJ45kzOtMT-1" source="t73Z2NfIbOkJ45kzOtMT-26" target="t73Z2NfIbOkJ45kzOtMT-52"><mxGeometry relative="1" as="geometry"><mxPoint x="214" y="355" as="sourcePoint"/><mxPoint x="695" y="490" as="targetPoint"/><Array as="points"><mxPoint x="360" y="392"/><mxPoint x="360" y="420"/><mxPoint x="525" y="420"/><mxPoint x="525" y="485"/></Array></mxGeometry></mxCell><mxCell id="t73Z2NfIbOkJ45kzOtMT-15" style="edgeStyle=orthogonalEdgeStyle;rounded=0;orthogonalLoop=1;jettySize=auto;html=1;dashed=1;fontFamily=Ubuntu Mono;fontSource=https%3A%2F%2Ffonts.googleapis.com%2Fcss%3Ffamily%3DUbuntu%2BMono;fontSize=12;fontColor=default;startArrow=none;startFill=0;elbow=vertical;entryX=0.75;entryY=1;entryDx=0;entryDy=0;entryPerimeter=0;curved=1;strokeWidth=2;" edge="1" parent="t73Z2NfIbOkJ45kzOtMT-1" source="t73Z2NfIbOkJ45kzOtMT-16" target="t73Z2NfIbOkJ45kzOtMT-26"><mxGeometry relative="1" as="geometry"><Array as="points"><mxPoint x="340" y="450"/><mxPoint x="273" y="450"/></Array></mxGeometry></mxCell><mxCell id="Pk_IeXOwUrnYlSKbAq8A-10" style="rounded=0;orthogonalLoop=1;jettySize=auto;html=1;exitX=-0.022;exitY=0.38;exitDx=0;exitDy=0;fontFamily=Ubuntu Mono;fontSource=https%3A%2F%2Ffonts.googleapis.com%2Fcss%3Ffamily%3DUbuntu%2BMono;fontSize=13;strokeColor=default;dashed=1;strokeWidth=2;exitPerimeter=0;" edge="1" parent="t73Z2NfIbOkJ45kzOtMT-1" source="t73Z2NfIbOkJ45kzOtMT-16" target="Pk_IeXOwUrnYlSKbAq8A-3"><mxGeometry relative="1" as="geometry"/></mxCell><mxCell id="t73Z2NfIbOkJ45kzOtMT-16" value="" style="whiteSpace=wrap;html=1;rounded=0;fontFamily=Ubuntu Mono;fontSource=https%3A%2F%2Ffonts.googleapis.com%2Fcss%3Ffamily%3DUbuntu%2BMono;fontSize=16;fontColor=default;strokeColor=#808080;fillColor=none;shadow=1;strokeWidth=2;" vertex="1" parent="t73Z2NfIbOkJ45kzOtMT-1"><mxGeometry x="295" y="540" width="225" height="100" as="geometry"/></mxCell><mxCell id="t73Z2NfIbOkJ45kzOtMT-17" value="&lt;font style=&quot;font-size: 14px;&quot;&gt;NGNINX&lt;br&gt;reverse-proxy&lt;/font&gt;" style="text;html=1;resizable=0;autosize=1;align=center;verticalAlign=middle;points=[];fillColor=none;strokeColor=none;rounded=0;fontFamily=Ubuntu Mono;fontSource=https%3A%2F%2Ffonts.googleapis.com%2Fcss%3Ffamily%3DUbuntu%2BMono;fontSize=16;fontColor=default;shadow=0;glass=0;sketch=0;" vertex="1" parent="t73Z2NfIbOkJ45kzOtMT-1"><mxGeometry x="380" y="540" width="110" height="40" as="geometry"/></mxCell><mxCell id="t73Z2NfIbOkJ45kzOtMT-18" value="" style="rounded=0;whiteSpace=wrap;html=1;shadow=1;glass=0;sketch=0;fontFamily=Ubuntu Mono;fontSource=https%3A%2F%2Ffonts.googleapis.com%2Fcss%3Ffamily%3DUbuntu%2BMono;fontSize=16;fontColor=default;strokeColor=#808080;fillColor=none;strokeWidth=2;" vertex="1" parent="t73Z2NfIbOkJ45kzOtMT-1"><mxGeometry x="340" y="290" width="165" height="90" as="geometry"/></mxCell><mxCell id="t73Z2NfIbOkJ45kzOtMT-19" value="&lt;font style=&quot;font-size: 14px;&quot;&gt;Postgres&lt;/font&gt;" style="text;html=1;resizable=0;autosize=1;align=center;verticalAlign=middle;points=[];fillColor=none;strokeColor=none;rounded=0;shadow=1;glass=0;sketch=0;fontFamily=Ubuntu Mono;fontSource=https%3A%2F%2Ffonts.googleapis.com%2Fcss%3Ffamily%3DUbuntu%2BMono;fontSize=16;fontColor=default;" vertex="1" parent="t73Z2NfIbOkJ45kzOtMT-1"><mxGeometry x="340" y="290" width="70" height="20" as="geometry"/></mxCell><mxCell id="t73Z2NfIbOkJ45kzOtMT-20" style="edgeStyle=orthogonalEdgeStyle;rounded=0;orthogonalLoop=1;jettySize=auto;html=1;dashed=1;fontFamily=Ubuntu Mono;fontSource=https%3A%2F%2Ffonts.googleapis.com%2Fcss%3Ffamily%3DUbuntu%2BMono;fontSize=16;fontColor=default;startArrow=none;startFill=0;curved=1;exitX=0.25;exitY=1;exitDx=0;exitDy=0;exitPerimeter=0;strokeWidth=2;" edge="1" parent="t73Z2NfIbOkJ45kzOtMT-1" source="t73Z2NfIbOkJ45kzOtMT-59" target="t73Z2NfIbOkJ45kzOtMT-52"><mxGeometry relative="1" as="geometry"><mxPoint x="770.000008641978" y="321.7777777777776" as="sourcePoint"/><mxPoint x="652.5238095238096" y="470" as="targetPoint"/></mxGeometry></mxCell><mxCell id="t73Z2NfIbOkJ45kzOtMT-21" value="" style="endArrow=classic;html=1;rounded=0;fontFamily=Ubuntu Mono;fontSource=https%3A%2F%2Ffonts.googleapis.com%2Fcss%3Ffamily%3DUbuntu%2BMono;fontSize=16;fontColor=default;elbow=vertical;exitX=-0.011;exitY=0.705;exitDx=0;exitDy=0;exitPerimeter=0;dashed=1;entryX=1.009;entryY=0.269;entryDx=0;entryDy=0;entryPerimeter=0;strokeWidth=2;" edge="1" parent="t73Z2NfIbOkJ45kzOtMT-1" source="t73Z2NfIbOkJ45kzOtMT-3" target="t73Z2NfIbOkJ45kzOtMT-12"><mxGeometry width="50" height="50" relative="1" as="geometry"><mxPoint x="755" y="445" as="sourcePoint"/><mxPoint x="715" y="420" as="targetPoint"/></mxGeometry></mxCell><mxCell id="t73Z2NfIbOkJ45kzOtMT-22" value="SSH" style="edgeLabel;html=1;align=center;verticalAlign=middle;resizable=0;points=[];fontSize=16;fontFamily=Ubuntu Mono;fontColor=default;" vertex="1" connectable="0" parent="t73Z2NfIbOkJ45kzOtMT-21"><mxGeometry x="-0.1301" y="-2" relative="1" as="geometry"><mxPoint as="offset"/></mxGeometry></mxCell><mxCell id="t73Z2NfIbOkJ45kzOtMT-23" value="" style="group" vertex="1" connectable="0" parent="t73Z2NfIbOkJ45kzOtMT-1"><mxGeometry x="165" y="310" width="150" height="100" as="geometry"/></mxCell><mxCell id="t73Z2NfIbOkJ45kzOtMT-24" value="" style="rounded=0;whiteSpace=wrap;html=1;fontFamily=Ubuntu Mono;fontSource=https%3A%2F%2Ffonts.googleapis.com%2Fcss%3Ffamily%3DUbuntu%2BMono;fontSize=16;fontColor=default;strokeColor=#808080;fillColor=none;sketch=0;shadow=1;glass=0;strokeWidth=2;" vertex="1" parent="t73Z2NfIbOkJ45kzOtMT-23"><mxGeometry width="150" height="100" as="geometry"/></mxCell><mxCell id="t73Z2NfIbOkJ45kzOtMT-25" value="&lt;font style=&quot;font-size: 14px;&quot;&gt;nodejs&lt;/font&gt;" style="text;html=1;resizable=0;autosize=1;align=center;verticalAlign=middle;points=[];fillColor=none;strokeColor=none;rounded=0;shadow=0;glass=0;sketch=0;fontFamily=Ubuntu Mono;fontSource=https%3A%2F%2Ffonts.googleapis.com%2Fcss%3Ffamily%3DUbuntu%2BMono;fontSize=16;fontColor=default;" vertex="1" parent="t73Z2NfIbOkJ45kzOtMT-23"><mxGeometry x="5" width="60" height="20" as="geometry"/></mxCell><mxCell id="t73Z2NfIbOkJ45kzOtMT-26" value="&lt;font style=&quot;font-size: 14px;&quot;&gt;carshare/app&lt;/font&gt;" style="html=1;outlineConnect=0;whiteSpace=wrap;fillColor=none;shape=mxgraph.archimate3.application;appType=comp;archiType=square;rounded=0;shadow=1;glass=0;sketch=0;fontFamily=Ubuntu Mono;fontSource=https%3A%2F%2Ffonts.googleapis.com%2Fcss%3Ffamily%3DUbuntu%2BMono;fontSize=16;" vertex="1" parent="t73Z2NfIbOkJ45kzOtMT-23"><mxGeometry x="10" y="26.5" width="130" height="55" as="geometry"/></mxCell><mxCell id="t73Z2NfIbOkJ45kzOtMT-27" value="&lt;font style=&quot;font-size: 14px;&quot;&gt;dev&lt;/font&gt;" style="strokeWidth=2;html=1;shape=mxgraph.flowchart.database;whiteSpace=wrap;rounded=0;shadow=1;glass=0;sketch=0;fontFamily=Ubuntu Mono;fontSource=https%3A%2F%2Ffonts.googleapis.com%2Fcss%3Ffamily%3DUbuntu%2BMono;fontSize=16;fontColor=default;fillColor=none;" vertex="1" parent="t73Z2NfIbOkJ45kzOtMT-1"><mxGeometry x="435" y="320" width="40" height="50" as="geometry"/></mxCell><mxCell id="t73Z2NfIbOkJ45kzOtMT-28" value="&lt;font style=&quot;font-size: 14px;&quot;&gt;prod&lt;/font&gt;" style="strokeWidth=2;html=1;shape=mxgraph.flowchart.database;whiteSpace=wrap;rounded=0;shadow=1;glass=0;sketch=0;fontFamily=Ubuntu Mono;fontSource=https%3A%2F%2Ffonts.googleapis.com%2Fcss%3Ffamily%3DUbuntu%2BMono;fontSize=16;fontColor=default;fillColor=none;" vertex="1" parent="t73Z2NfIbOkJ45kzOtMT-1"><mxGeometry x="370" y="320" width="40" height="50" as="geometry"/></mxCell><mxCell id="t73Z2NfIbOkJ45kzOtMT-31" value="" style="rounded=0;whiteSpace=wrap;html=1;shadow=0;glass=0;sketch=0;fontFamily=Ubuntu Mono;fontSource=https%3A%2F%2Ffonts.googleapis.com%2Fcss%3Ffamily%3DUbuntu%2BMono;fontSize=16;fontColor=default;strokeColor=#808080;fillColor=none;strokeWidth=2;" vertex="1" parent="t73Z2NfIbOkJ45kzOtMT-1"><mxGeometry x="680" y="570" width="150" height="80" as="geometry"/></mxCell><mxCell id="t73Z2NfIbOkJ45kzOtMT-32" style="edgeStyle=orthogonalEdgeStyle;curved=1;rounded=0;orthogonalLoop=1;jettySize=auto;html=1;dashed=1;fontFamily=Ubuntu Mono;fontSource=https%3A%2F%2Ffonts.googleapis.com%2Fcss%3Ffamily%3DUbuntu%2BMono;fontSize=12;fontColor=default;startArrow=none;startFill=0;exitX=0;exitY=0.5;exitDx=0;exitDy=0;strokeWidth=2;" edge="1" parent="t73Z2NfIbOkJ45kzOtMT-1" source="t73Z2NfIbOkJ45kzOtMT-31" target="t73Z2NfIbOkJ45kzOtMT-16"><mxGeometry relative="1" as="geometry"><mxPoint x="745" y="590" as="sourcePoint"/></mxGeometry></mxCell><mxCell id="t73Z2NfIbOkJ45kzOtMT-33" style="rounded=0;orthogonalLoop=1;jettySize=auto;html=1;dashed=1;fontFamily=Ubuntu Mono;fontSource=https%3A%2F%2Ffonts.googleapis.com%2Fcss%3Ffamily%3DUbuntu%2BMono;fontSize=12;fontColor=default;startArrow=none;startFill=0;exitX=0.445;exitY=0.995;exitDx=0;exitDy=0;exitPerimeter=0;edgeStyle=orthogonalEdgeStyle;curved=1;strokeWidth=2;" edge="1" parent="t73Z2NfIbOkJ45kzOtMT-1" source="t73Z2NfIbOkJ45kzOtMT-31" target="t73Z2NfIbOkJ45kzOtMT-38"><mxGeometry relative="1" as="geometry"><mxPoint x="790" y="630" as="sourcePoint"/></mxGeometry></mxCell><mxCell id="t73Z2NfIbOkJ45kzOtMT-34" value="&lt;font style=&quot;font-size: 14px;&quot;&gt;Frontend:&lt;br&gt;React&lt;/font&gt;" style="text;html=1;resizable=0;autosize=1;align=left;verticalAlign=middle;points=[];fillColor=none;strokeColor=none;rounded=0;shadow=1;glass=0;sketch=0;fontFamily=Ubuntu Mono;fontSource=https%3A%2F%2Ffonts.googleapis.com%2Fcss%3Ffamily%3DUbuntu%2BMono;fontSize=16;fontColor=default;" vertex="1" parent="t73Z2NfIbOkJ45kzOtMT-1"><mxGeometry x="715" y="570" width="80" height="40" as="geometry"/></mxCell><mxCell id="t73Z2NfIbOkJ45kzOtMT-35" value="&lt;font style=&quot;font-size: 14px;&quot;&gt;vadzimk.link&lt;/font&gt;" style="text;html=1;resizable=0;autosize=1;align=center;verticalAlign=middle;points=[];fillColor=none;strokeColor=none;rounded=0;shadow=1;glass=0;sketch=0;fontFamily=Ubuntu Mono;fontSource=https%3A%2F%2Ffonts.googleapis.com%2Fcss%3Ffamily%3DUbuntu%2BMono;fontSize=16;fontColor=default;" vertex="1" parent="t73Z2NfIbOkJ45kzOtMT-1"><mxGeometry x="410" y="580" width="100" height="20" as="geometry"/></mxCell><mxCell id="t73Z2NfIbOkJ45kzOtMT-36" value="&lt;font style=&quot;font-size: 12px;&quot;&gt;carshare.vadzimk.link&lt;/font&gt;" style="text;html=1;resizable=0;autosize=1;align=center;verticalAlign=middle;points=[];fillColor=none;strokeColor=none;rounded=0;shadow=1;glass=0;sketch=0;fontFamily=Ubuntu Mono;fontSource=https%3A%2F%2Ffonts.googleapis.com%2Fcss%3Ffamily%3DUbuntu%2BMono;fontSize=12;fontColor=default;" vertex="1" parent="t73Z2NfIbOkJ45kzOtMT-1"><mxGeometry x="375" y="600" width="140" height="20" as="geometry"/></mxCell><mxCell id="t73Z2NfIbOkJ45kzOtMT-37" value="" style="rounded=0;whiteSpace=wrap;html=1;shadow=0;glass=0;sketch=0;fontFamily=Ubuntu Mono;fontSource=https%3A%2F%2Ffonts.googleapis.com%2Fcss%3Ffamily%3DUbuntu%2BMono;fontSize=12;fontColor=default;strokeColor=#808080;fillColor=none;strokeWidth=2;dashed=1;dashPattern=1 1;" vertex="1" parent="t73Z2NfIbOkJ45kzOtMT-1"><mxGeometry x="667.5" y="780" width="170" height="110" as="geometry"/></mxCell><mxCell id="t73Z2NfIbOkJ45kzOtMT-38" value="&lt;font style=&quot;font-size: 14px;&quot;&gt;Maptiler&lt;/font&gt;" style="text;html=1;resizable=0;autosize=1;align=center;verticalAlign=middle;points=[];fillColor=none;strokeColor=none;rounded=0;shadow=0;glass=0;sketch=0;fontFamily=Ubuntu Mono;fontSource=https%3A%2F%2Ffonts.googleapis.com%2Fcss%3Ffamily%3DUbuntu%2BMono;fontSize=16;fontColor=default;" vertex="1" parent="t73Z2NfIbOkJ45kzOtMT-1"><mxGeometry x="707.5" y="780" width="70" height="20" as="geometry"/></mxCell><mxCell id="t73Z2NfIbOkJ45kzOtMT-39" value="&lt;font style=&quot;font-size: 14px;&quot;&gt;api.maptiler.com&lt;/font&gt;" style="text;html=1;resizable=0;autosize=1;align=center;verticalAlign=middle;points=[];fillColor=none;strokeColor=none;rounded=0;shadow=1;glass=0;sketch=0;fontFamily=Ubuntu Mono;fontSource=https%3A%2F%2Ffonts.googleapis.com%2Fcss%3Ffamily%3DUbuntu%2BMono;fontSize=16;fontColor=default;" vertex="1" parent="t73Z2NfIbOkJ45kzOtMT-1"><mxGeometry x="677.5" y="810" width="130" height="20" as="geometry"/></mxCell><mxCell id="t73Z2NfIbOkJ45kzOtMT-40" value="&lt;font style=&quot;font-size: 12px;&quot;&gt;Geocoding to street level,&lt;br style=&quot;&quot;&gt;map tiles - Openstreetmaps&lt;/font&gt;" style="text;html=1;resizable=0;autosize=1;align=left;verticalAlign=middle;points=[];fillColor=none;strokeColor=none;rounded=0;shadow=1;glass=0;sketch=0;fontFamily=Ubuntu Mono;fontSource=https%3A%2F%2Ffonts.googleapis.com%2Fcss%3Ffamily%3DUbuntu%2BMono;fontSize=16;fontColor=default;" vertex="1" parent="t73Z2NfIbOkJ45kzOtMT-1"><mxGeometry x="667.5" y="830" width="170" height="50" as="geometry"/></mxCell><mxCell id="t73Z2NfIbOkJ45kzOtMT-41" style="edgeStyle=orthogonalEdgeStyle;rounded=0;orthogonalLoop=1;jettySize=auto;html=1;exitX=1;exitY=0.75;exitDx=0;exitDy=0;exitPerimeter=0;dashed=1;fontFamily=Ubuntu Mono;fontSource=https%3A%2F%2Ffonts.googleapis.com%2Fcss%3Ffamily%3DUbuntu%2BMono;fontSize=12;fontColor=default;startArrow=none;startFill=0;elbow=vertical;entryX=0;entryY=0.5;entryDx=0;entryDy=0;entryPerimeter=0;strokeWidth=2;curved=1;" edge="1" parent="t73Z2NfIbOkJ45kzOtMT-1" source="t73Z2NfIbOkJ45kzOtMT-26" target="t73Z2NfIbOkJ45kzOtMT-28"><mxGeometry relative="1" as="geometry"/></mxCell><mxCell id="t73Z2NfIbOkJ45kzOtMT-42" style="edgeStyle=orthogonalEdgeStyle;curved=1;rounded=0;orthogonalLoop=1;jettySize=auto;html=1;exitX=0;exitY=0.5;exitDx=0;exitDy=0;exitPerimeter=0;entryX=1;entryY=0.5;entryDx=0;entryDy=0;entryPerimeter=0;dashed=1;fontFamily=Ubuntu Mono;fontSource=https%3A%2F%2Ffonts.googleapis.com%2Fcss%3Ffamily%3DUbuntu%2BMono;fontSize=12;fontColor=default;startArrow=none;startFill=0;elbow=vertical;strokeWidth=2;" edge="1" parent="t73Z2NfIbOkJ45kzOtMT-1" source="t73Z2NfIbOkJ45kzOtMT-59" target="t73Z2NfIbOkJ45kzOtMT-27"><mxGeometry relative="1" as="geometry"/></mxCell><mxCell id="t73Z2NfIbOkJ45kzOtMT-43" value="" style="html=1;outlineConnect=0;whiteSpace=wrap;fillColor=none;shape=mxgraph.archimate3.component;rounded=0;shadow=1;glass=0;sketch=0;fontFamily=Ubuntu Mono;fontSource=https%3A%2F%2Ffonts.googleapis.com%2Fcss%3Ffamily%3DUbuntu%2BMono;fontSize=12;fontColor=default;strokeColor=#808080;" vertex="1" parent="t73Z2NfIbOkJ45kzOtMT-1"><mxGeometry x="795" y="615" width="20" height="25" as="geometry"/></mxCell><mxCell id="t73Z2NfIbOkJ45kzOtMT-44" value="react-leaflet" style="text;html=1;resizable=0;autosize=1;align=center;verticalAlign=middle;points=[];fillColor=none;strokeColor=none;rounded=0;shadow=1;glass=0;sketch=0;fontFamily=Ubuntu Mono;fontSource=https%3A%2F%2Ffonts.googleapis.com%2Fcss%3Ffamily%3DUbuntu%2BMono;fontSize=12;fontColor=default;" vertex="1" parent="t73Z2NfIbOkJ45kzOtMT-1"><mxGeometry x="705" y="620" width="90" height="20" as="geometry"/></mxCell><mxCell id="t73Z2NfIbOkJ45kzOtMT-45" value="" style="rounded=0;whiteSpace=wrap;html=1;shadow=0;glass=0;sketch=0;fontFamily=Ubuntu Mono;fontSource=https%3A%2F%2Ffonts.googleapis.com%2Fcss%3Ffamily%3DUbuntu%2BMono;fontSize=12;fontColor=default;strokeColor=#808080;fillColor=none;strokeWidth=2;dashed=1;dashPattern=1 1;" vertex="1" parent="t73Z2NfIbOkJ45kzOtMT-1"><mxGeometry x="595" y="60" width="190" height="80" as="geometry"/></mxCell><mxCell id="t73Z2NfIbOkJ45kzOtMT-46" value="&lt;font style=&quot;font-size: 14px;&quot;&gt;Rapidapi&lt;/font&gt;" style="text;html=1;resizable=0;autosize=1;align=center;verticalAlign=middle;points=[];fillColor=none;strokeColor=none;rounded=0;shadow=1;glass=0;sketch=0;fontFamily=Ubuntu Mono;fontSource=https%3A%2F%2Ffonts.googleapis.com%2Fcss%3Ffamily%3DUbuntu%2BMono;fontSize=16;fontColor=default;" vertex="1" parent="t73Z2NfIbOkJ45kzOtMT-1"><mxGeometry x="625" y="60" width="70" height="20" as="geometry"/></mxCell><mxCell id="t73Z2NfIbOkJ45kzOtMT-47" value="&lt;font style=&quot;font-size: 14px;&quot;&gt;Nominarium&lt;/font&gt;" style="text;html=1;resizable=0;autosize=1;align=center;verticalAlign=middle;points=[];fillColor=none;strokeColor=none;rounded=0;shadow=1;glass=0;sketch=0;fontFamily=Ubuntu Mono;fontSource=https%3A%2F%2Ffonts.googleapis.com%2Fcss%3Ffamily%3DUbuntu%2BMono;fontSize=16;fontColor=default;" vertex="1" parent="t73Z2NfIbOkJ45kzOtMT-1"><mxGeometry x="620" y="80" width="90" height="20" as="geometry"/></mxCell><mxCell id="t73Z2NfIbOkJ45kzOtMT-48" value="https://rapidapi.com/GeocodeSupport&lt;br&gt;&lt;div style=&quot;text-align: left;&quot;&gt;&lt;span style=&quot;background-color: initial;&quot;&gt;/api/forward-reverse-geocoding/&lt;/span&gt;&lt;/div&gt;  " style="text;html=1;resizable=0;autosize=1;align=center;verticalAlign=middle;points=[];fillColor=none;strokeColor=none;rounded=0;shadow=1;glass=0;sketch=0;fontFamily=Ubuntu Mono;fontSource=https%3A%2F%2Ffonts.googleapis.com%2Fcss%3Ffamily%3DUbuntu%2BMono;fontSize=10;fontColor=default;" vertex="1" parent="t73Z2NfIbOkJ45kzOtMT-1"><mxGeometry x="605" y="105" width="190" height="30" as="geometry"/></mxCell><mxCell id="t73Z2NfIbOkJ45kzOtMT-49" style="edgeStyle=orthogonalEdgeStyle;curved=1;rounded=0;orthogonalLoop=1;jettySize=auto;html=1;exitX=0.5;exitY=0;exitDx=0;exitDy=0;exitPerimeter=0;entryX=0;entryY=0.5;entryDx=0;entryDy=0;dashed=1;fontFamily=Ubuntu Mono;fontSource=https%3A%2F%2Ffonts.googleapis.com%2Fcss%3Ffamily%3DUbuntu%2BMono;fontSize=10;fontColor=default;startArrow=none;startFill=0;elbow=vertical;strokeWidth=2;" edge="1" parent="t73Z2NfIbOkJ45kzOtMT-1" source="t73Z2NfIbOkJ45kzOtMT-26" target="t73Z2NfIbOkJ45kzOtMT-45"><mxGeometry relative="1" as="geometry"/></mxCell><mxCell id="t73Z2NfIbOkJ45kzOtMT-50" value="" style="rounded=0;whiteSpace=wrap;html=1;shadow=0;glass=0;sketch=0;fontFamily=Ubuntu Mono;fontSource=https%3A%2F%2Ffonts.googleapis.com%2Fcss%3Ffamily%3DUbuntu%2BMono;fontSize=10;fontColor=default;strokeColor=#808080;fillColor=none;strokeWidth=2;" vertex="1" parent="t73Z2NfIbOkJ45kzOtMT-1"><mxGeometry x="145" y="687" width="160" height="183" as="geometry"/></mxCell><mxCell id="t73Z2NfIbOkJ45kzOtMT-51" value="&lt;font style=&quot;font-size: 16px;&quot;&gt;&quot;instance0&quot;&lt;/font&gt;" style="text;html=1;resizable=0;autosize=1;align=center;verticalAlign=middle;points=[];fillColor=none;strokeColor=none;rounded=0;shadow=0;glass=0;sketch=0;fontFamily=Ubuntu Mono;fontSource=https%3A%2F%2Ffonts.googleapis.com%2Fcss%3Ffamily%3DUbuntu%2BMono;fontSize=10;fontColor=default;" vertex="1" parent="t73Z2NfIbOkJ45kzOtMT-1"><mxGeometry x="140" y="690" width="100" height="20" as="geometry"/></mxCell><mxCell id="t73Z2NfIbOkJ45kzOtMT-52" value="&lt;font color=&quot;#808080&quot;&gt;Object&lt;br&gt;storage&lt;br&gt;&lt;font style=&quot;font-size: 16px;&quot;&gt;Bucket&lt;/font&gt;&lt;/font&gt;" style="sketch=0;outlineConnect=0;fontColor=#232F3E;gradientColor=none;strokeColor=#808080;fillColor=none;dashed=0;verticalLabelPosition=bottom;verticalAlign=top;align=center;html=1;fontSize=12;fontStyle=0;aspect=fixed;shape=mxgraph.aws4.resourceIcon;resIcon=mxgraph.aws4.bucket_with_objects;rounded=0;shadow=0;glass=0;fontFamily=Ubuntu Mono;fontSource=https%3A%2F%2Ffonts.googleapis.com%2Fcss%3Ffamily%3DUbuntu%2BMono;strokeWidth=2;" vertex="1" parent="t73Z2NfIbOkJ45kzOtMT-1"><mxGeometry x="605" y="470" width="45" height="45" as="geometry"/></mxCell><mxCell id="t73Z2NfIbOkJ45kzOtMT-53" value="" style="endArrow=classic;startArrow=classic;html=1;rounded=0;fontFamily=Ubuntu Mono;fontSource=https%3A%2F%2Ffonts.googleapis.com%2Fcss%3Ffamily%3DUbuntu%2BMono;fontSize=16;fontColor=default;curved=1;elbow=vertical;exitX=0.855;exitY=0.145;exitDx=0;exitDy=0;exitPerimeter=0;strokeWidth=2;" edge="1" parent="t73Z2NfIbOkJ45kzOtMT-1" source="t73Z2NfIbOkJ45kzOtMT-11" target="t73Z2NfIbOkJ45kzOtMT-12"><mxGeometry width="50" height="50" relative="1" as="geometry"><mxPoint x="475" y="630" as="sourcePoint"/><mxPoint x="525" y="580" as="targetPoint"/></mxGeometry></mxCell><mxCell id="t73Z2NfIbOkJ45kzOtMT-54" value="" style="endArrow=classic;startArrow=classic;html=1;rounded=0;fontFamily=Ubuntu Mono;fontSource=https%3A%2F%2Ffonts.googleapis.com%2Fcss%3Ffamily%3DUbuntu%2BMono;fontSize=16;fontColor=default;curved=1;elbow=vertical;entryX=0.01;entryY=0.191;entryDx=0;entryDy=0;entryPerimeter=0;strokeWidth=2;" edge="1" parent="t73Z2NfIbOkJ45kzOtMT-1" target="t73Z2NfIbOkJ45kzOtMT-50"><mxGeometry width="50" height="50" relative="1" as="geometry"><mxPoint x="105" y="680" as="sourcePoint"/><mxPoint x="140" y="720" as="targetPoint"/></mxGeometry></mxCell><mxCell id="t73Z2NfIbOkJ45kzOtMT-55" value="&lt;font style=&quot;font-size: 14px;&quot;&gt;OCI Compartment&lt;/font&gt;" style="text;html=1;resizable=0;autosize=1;align=center;verticalAlign=middle;points=[];fillColor=none;strokeColor=none;rounded=0;shadow=0;glass=0;sketch=0;fontFamily=Ubuntu Mono;fontSource=https%3A%2F%2Ffonts.googleapis.com%2Fcss%3Ffamily%3DUbuntu%2BMono;fontSize=16;fontColor=default;" vertex="1" parent="t73Z2NfIbOkJ45kzOtMT-1"><mxGeometry x="40" y="160" width="120" height="20" as="geometry"/></mxCell><mxCell id="t73Z2NfIbOkJ45kzOtMT-56" value="" style="rounded=0;whiteSpace=wrap;html=1;fontFamily=Ubuntu Mono;fontSource=https%3A%2F%2Ffonts.googleapis.com%2Fcss%3Ffamily%3DUbuntu%2BMono;fontSize=16;fontColor=default;strokeColor=#808080;fillColor=none;sketch=0;shadow=0;glass=0;strokeWidth=2;" vertex="1" parent="t73Z2NfIbOkJ45kzOtMT-1"><mxGeometry x="680" y="287.5" width="150" height="100" as="geometry"/></mxCell><mxCell id="t73Z2NfIbOkJ45kzOtMT-57" value="&lt;font style=&quot;font-size: 14px;&quot;&gt;nodejs&lt;/font&gt;" style="text;html=1;resizable=0;autosize=1;align=center;verticalAlign=middle;points=[];fillColor=none;strokeColor=none;rounded=0;shadow=0;glass=0;sketch=0;fontFamily=Ubuntu Mono;fontSource=https%3A%2F%2Ffonts.googleapis.com%2Fcss%3Ffamily%3DUbuntu%2BMono;fontSize=16;fontColor=default;" vertex="1" parent="t73Z2NfIbOkJ45kzOtMT-1"><mxGeometry x="685" y="287.5" width="60" height="20" as="geometry"/></mxCell><mxCell id="t73Z2NfIbOkJ45kzOtMT-58" value="&lt;font style=&quot;font-size: 14px;&quot;&gt;Gitlab CI&lt;/font&gt;" style="text;html=1;resizable=0;autosize=1;align=left;verticalAlign=middle;points=[];fillColor=none;strokeColor=none;rounded=0;shadow=0;glass=0;sketch=0;fontFamily=Ubuntu Mono;fontSource=https%3A%2F%2Ffonts.googleapis.com%2Fcss%3Ffamily%3DUbuntu%2BMono;fontSize=16;fontColor=default;" vertex="1" parent="t73Z2NfIbOkJ45kzOtMT-1"><mxGeometry x="667.5" y="240" width="80" height="20" as="geometry"/></mxCell><mxCell id="t73Z2NfIbOkJ45kzOtMT-59" value="&lt;font style=&quot;font-size: 14px;&quot;&gt;app&lt;/font&gt;" style="html=1;outlineConnect=0;whiteSpace=wrap;fillColor=none;shape=mxgraph.archimate3.application;appType=comp;archiType=square;rounded=0;shadow=0;glass=0;sketch=0;fontFamily=Ubuntu Mono;fontSource=https%3A%2F%2Ffonts.googleapis.com%2Fcss%3Ffamily%3DUbuntu%2BMono;fontSize=16;fontColor=default;strokeColor=#808080;strokeWidth=2;" vertex="1" parent="t73Z2NfIbOkJ45kzOtMT-1"><mxGeometry x="690" y="314" width="130" height="55" as="geometry"/></mxCell><mxCell id="t73Z2NfIbOkJ45kzOtMT-60" style="edgeStyle=orthogonalEdgeStyle;rounded=0;orthogonalLoop=1;jettySize=auto;html=1;entryX=0.795;entryY=1.086;entryDx=0;entryDy=0;entryPerimeter=0;dashed=1;fontFamily=Ubuntu Mono;fontSource=https%3A%2F%2Ffonts.googleapis.com%2Fcss%3Ffamily%3DUbuntu%2BMono;fontSize=10;fontColor=default;startArrow=none;startFill=0;curved=1;strokeWidth=2;exitX=0.75;exitY=0;exitDx=0;exitDy=0;exitPerimeter=0;" edge="1" parent="t73Z2NfIbOkJ45kzOtMT-1" source="t73Z2NfIbOkJ45kzOtMT-59" target="t73Z2NfIbOkJ45kzOtMT-48"><mxGeometry relative="1" as="geometry"/></mxCell><mxCell id="Pk_IeXOwUrnYlSKbAq8A-0" value="" style="group" vertex="1" connectable="0" parent="t73Z2NfIbOkJ45kzOtMT-1"><mxGeometry x="165" y="432.5" width="150" height="100" as="geometry"/></mxCell><mxCell id="Pk_IeXOwUrnYlSKbAq8A-1" value="" style="rounded=0;whiteSpace=wrap;html=1;fontFamily=Ubuntu Mono;fontSource=https%3A%2F%2Ffonts.googleapis.com%2Fcss%3Ffamily%3DUbuntu%2BMono;fontSize=16;fontColor=default;strokeColor=#808080;fillColor=none;sketch=0;shadow=1;glass=0;strokeWidth=2;" vertex="1" parent="Pk_IeXOwUrnYlSKbAq8A-0"><mxGeometry width="150" height="100" as="geometry"/></mxCell><mxCell id="Pk_IeXOwUrnYlSKbAq8A-2" value="&lt;font style=&quot;font-size: 14px;&quot;&gt;nodejs&lt;/font&gt;" style="text;html=1;resizable=0;autosize=1;align=center;verticalAlign=middle;points=[];fillColor=none;strokeColor=none;rounded=0;shadow=0;glass=0;sketch=0;fontFamily=Ubuntu Mono;fontSource=https%3A%2F%2Ffonts.googleapis.com%2Fcss%3Ffamily%3DUbuntu%2BMono;fontSize=16;fontColor=default;" vertex="1" parent="Pk_IeXOwUrnYlSKbAq8A-0"><mxGeometry x="5" width="60" height="20" as="geometry"/></mxCell><mxCell id="Pk_IeXOwUrnYlSKbAq8A-3" value="&lt;font style=&quot;font-size: 14px;&quot;&gt;atpools/backend&lt;/font&gt;" style="html=1;outlineConnect=0;whiteSpace=wrap;fillColor=none;shape=mxgraph.archimate3.application;appType=comp;archiType=square;rounded=0;shadow=1;glass=0;sketch=0;fontFamily=Ubuntu Mono;fontSource=https%3A%2F%2Ffonts.googleapis.com%2Fcss%3Ffamily%3DUbuntu%2BMono;fontSize=16;" vertex="1" parent="Pk_IeXOwUrnYlSKbAq8A-0"><mxGeometry x="10" y="26.5" width="130" height="55" as="geometry"/></mxCell><mxCell id="Pk_IeXOwUrnYlSKbAq8A-8" value="" style="group;fillColor=none;strokeColor=default;rounded=1;" vertex="1" connectable="0" parent="t73Z2NfIbOkJ45kzOtMT-1"><mxGeometry x="300" y="550" width="80" height="80" as="geometry"/></mxCell><mxCell id="XJIDP8mVET-C7_kGWsPT-2" value="&lt;b style=&quot;font-family: Helvetica; font-size: 12px;&quot;&gt;&lt;font data-font-src=&quot;https://fonts.googleapis.com/css?family=Ubuntu+Mono&quot; face=&quot;Ubuntu Mono&quot;&gt;html/atpools&lt;br&gt;&lt;div style=&quot;text-align: left;&quot;&gt;&lt;b style=&quot;background-color: initial;&quot;&gt;html/...&lt;/b&gt;&lt;/div&gt;&lt;/font&gt;&lt;/b&gt;" style="text;html=1;resizable=0;autosize=1;align=center;verticalAlign=middle;points=[];fillColor=none;strokeColor=none;rounded=0;fontFamily=Ubuntu Mono;fontSource=https%3A%2F%2Ffonts.googleapis.com%2Fcss%3Ffamily%3DUbuntu%2BMono;fontSize=13;" vertex="1" parent="t73Z2NfIbOkJ45kzOtMT-1"><mxGeometry x="295" y="550" width="90" height="40" as="geometry"/></mxCell></root></mxGraphModel></diagram><diagram id="5bdCxhfKke27k3Nic_xm" name="Page-2"><mxGraphModel dx="1328" dy="1182" grid="1" gridSize="10" guides="1" tooltips="1" connect="1" arrows="1" fold="1" page="1" pageScale="1" pageWidth="850" pageHeight="1100" math="0" shadow="0"><root><mxCell id="0"/><mxCell id="1" parent="0"/><mxCell id="gcOXxwU19UvZio4wHQrG-1" value="" style="rounded=0;whiteSpace=wrap;html=1;shadow=0;glass=0;sketch=0;fontFamily=Ubuntu Mono;fontSource=https%3A%2F%2Ffonts.googleapis.com%2Fcss%3Ffamily%3DUbuntu%2BMono;fontSize=16;fontColor=default;strokeColor=#99004D;fillColor=none;dashed=1;strokeWidth=3;" parent="1" vertex="1"><mxGeometry x="30" y="160" width="660" height="540" as="geometry"/></mxCell><mxCell id="gcOXxwU19UvZio4wHQrG-2" value="" style="sketch=0;outlineConnect=0;fontColor=#232F3E;gradientColor=none;fillColor=#000000;strokeColor=none;dashed=0;verticalLabelPosition=bottom;verticalAlign=top;align=center;html=1;fontSize=12;fontStyle=0;aspect=fixed;pointerEvents=1;shape=mxgraph.aws4.internet_alt2;rounded=1;fontFamily=Ubuntu Mono;fontSource=https%3A%2F%2Ffonts.googleapis.com%2Fcss%3Ffamily%3DUbuntu%2BMono;strokeWidth=2;" parent="1" vertex="1"><mxGeometry x="670" y="350" width="40" height="40" as="geometry"/></mxCell><mxCell id="gcOXxwU19UvZio4wHQrG-3" value="" style="rounded=0;whiteSpace=wrap;html=1;fontFamily=Ubuntu Mono;fontSource=https%3A%2F%2Ffonts.googleapis.com%2Fcss%3Ffamily%3DUbuntu%2BMono;fontSize=16;strokeColor=#6D1F00;fillColor=#D4B198;dashed=1;strokeWidth=2;fontColor=#ffffff;" parent="1" vertex="1"><mxGeometry x="100" y="200" width="460" height="470" as="geometry"/></mxCell><mxCell id="gcOXxwU19UvZio4wHQrG-4" value="&lt;font color=&quot;#000000&quot;&gt;prod-vcn&lt;/font&gt;" style="text;html=1;resizable=0;autosize=1;align=center;verticalAlign=middle;points=[];fillColor=none;strokeColor=none;rounded=0;fontFamily=Ubuntu Mono;fontSource=https%3A%2F%2Ffonts.googleapis.com%2Fcss%3Ffamily%3DUbuntu%2BMono;fontSize=16;fontColor=default;" parent="1" vertex="1"><mxGeometry x="100" y="200" width="80" height="20" as="geometry"/></mxCell><mxCell id="gcOXxwU19UvZio4wHQrG-6" value="" style="rounded=0;whiteSpace=wrap;html=1;fontFamily=Ubuntu Mono;fontSource=https%3A%2F%2Ffonts.googleapis.com%2Fcss%3Ffamily%3DUbuntu%2BMono;fontSize=16;strokeColor=#8F7658;fillColor=#88DCAB;dashed=1;strokeWidth=2;" parent="1" vertex="1"><mxGeometry x="140" y="240" width="310" height="310" as="geometry"/></mxCell><mxCell id="gcOXxwU19UvZio4wHQrG-7" value="&lt;font color=&quot;#000000&quot;&gt;prod-subnet1&lt;/font&gt;" style="text;html=1;resizable=0;autosize=1;align=center;verticalAlign=middle;points=[];fillColor=none;strokeColor=none;rounded=0;fontFamily=Ubuntu Mono;fontSource=https%3A%2F%2Ffonts.googleapis.com%2Fcss%3Ffamily%3DUbuntu%2BMono;fontSize=16;fontColor=default;" parent="1" vertex="1"><mxGeometry x="140" y="240" width="110" height="20" as="geometry"/></mxCell><mxCell id="gcOXxwU19UvZio4wHQrG-8" style="edgeStyle=none;rounded=0;orthogonalLoop=1;jettySize=auto;html=1;fontFamily=Ubuntu Mono;fontSource=https%3A%2F%2Ffonts.googleapis.com%2Fcss%3Ffamily%3DUbuntu%2BMono;fontSize=16;fontColor=default;startArrow=classic;startFill=1;strokeWidth=2;" parent="1" source="gcOXxwU19UvZio4wHQrG-9" target="gcOXxwU19UvZio4wHQrG-2" edge="1"><mxGeometry relative="1" as="geometry"/></mxCell><mxCell id="gcOXxwU19UvZio4wHQrG-9" value="" style="fillColor=#999999;verticalLabelPosition=bottom;sketch=0;html=1;strokeColor=#ffffff;verticalAlign=top;align=center;points=[[0.145,0.145,0],[0.5,0,0],[0.855,0.145,0],[1,0.5,0],[0.855,0.855,0],[0.5,1,0],[0.145,0.855,0],[0,0.5,0]];pointerEvents=1;shape=mxgraph.cisco_safe.compositeIcon;bgIcon=ellipse;resIcon=mxgraph.cisco_safe.capability.routing;rounded=1;fontFamily=Ubuntu Mono;fontSource=https%3A%2F%2Ffonts.googleapis.com%2Fcss%3Ffamily%3DUbuntu%2BMono;fontSize=16;fontColor=default;strokeWidth=2;" parent="1" vertex="1"><mxGeometry x="540" y="350" width="43" height="43" as="geometry"/></mxCell><mxCell id="gcOXxwU19UvZio4wHQrG-10" value="" style="rounded=0;whiteSpace=wrap;html=1;fontFamily=Ubuntu Mono;fontSource=https%3A%2F%2Ffonts.googleapis.com%2Fcss%3Ffamily%3DUbuntu%2BMono;fontSize=16;fontColor=#333333;strokeColor=#808055;fillColor=#79CDD4;shadow=1;strokeWidth=2;" parent="1" vertex="1"><mxGeometry x="170" y="300" width="215" height="140" as="geometry"/></mxCell><mxCell id="gcOXxwU19UvZio4wHQrG-11" value="instance: ubuntu 20.04:&lt;br&gt;webserver" style="text;html=1;resizable=0;autosize=1;align=left;verticalAlign=middle;points=[];fillColor=none;strokeColor=none;rounded=0;fontFamily=Ubuntu Mono;fontSource=https%3A%2F%2Ffonts.googleapis.com%2Fcss%3Ffamily%3DUbuntu%2BMono;fontSize=16;fontColor=default;" parent="1" vertex="1"><mxGeometry x="177.5" y="300" width="200" height="40" as="geometry"/></mxCell><mxCell id="gcOXxwU19UvZio4wHQrG-34" value="" style="endArrow=classic;startArrow=classic;html=1;rounded=0;fontFamily=Ubuntu Mono;fontSource=https%3A%2F%2Ffonts.googleapis.com%2Fcss%3Ffamily%3DUbuntu%2BMono;fontSize=16;fontColor=default;curved=1;elbow=vertical;strokeWidth=2;exitX=0;exitY=0.5;exitDx=0;exitDy=0;exitPerimeter=0;" parent="1" source="gcOXxwU19UvZio4wHQrG-9" target="gcOXxwU19UvZio4wHQrG-10" edge="1"><mxGeometry width="50" height="50" relative="1" as="geometry"><mxPoint x="530" y="370" as="sourcePoint"/><mxPoint x="525" y="580" as="targetPoint"/></mxGeometry></mxCell><mxCell id="gcOXxwU19UvZio4wHQrG-36" value="OCI Compartment" style="text;html=1;resizable=0;autosize=1;align=center;verticalAlign=middle;points=[];fillColor=none;strokeColor=none;rounded=0;shadow=0;glass=0;sketch=0;fontFamily=Ubuntu Mono;fontSource=https%3A%2F%2Ffonts.googleapis.com%2Fcss%3Ffamily%3DUbuntu%2BMono;fontSize=16;fontColor=default;" parent="1" vertex="1"><mxGeometry x="30" y="160" width="140" height="20" as="geometry"/></mxCell><mxCell id="Tu00z5FAIfqF0_bJ7bWg-1" value="" style="rounded=0;whiteSpace=wrap;html=1;shadow=0;fontColor=#000000;strokeColor=#857C45;strokeWidth=3;fillColor=#D4C66E;" parent="1" vertex="1"><mxGeometry x="202.5" y="350" width="150" height="70" as="geometry"/></mxCell><mxCell id="Tu00z5FAIfqF0_bJ7bWg-3" value="&lt;font color=&quot;#000000&quot;&gt;Docker&lt;/font&gt;" style="text;html=1;resizable=0;autosize=1;align=center;verticalAlign=middle;points=[];fillColor=none;strokeColor=none;rounded=0;fontFamily=Ubuntu Mono;fontSource=https%3A%2F%2Ffonts.googleapis.com%2Fcss%3Ffamily%3DUbuntu%2BMono;fontSize=16;fontColor=default;" parent="1" vertex="1"><mxGeometry x="200" y="350" width="60" height="20" as="geometry"/></mxCell><mxCell id="Tu00z5FAIfqF0_bJ7bWg-5" value="" style="whiteSpace=wrap;html=1;aspect=fixed;shadow=0;fontColor=#000000;strokeColor=#857C45;strokeWidth=3;fillColor=#82A2D3;" parent="1" vertex="1"><mxGeometry x="220" y="385" width="20" height="20" as="geometry"/></mxCell><mxCell id="Tu00z5FAIfqF0_bJ7bWg-6" value="" style="whiteSpace=wrap;html=1;aspect=fixed;shadow=0;fontColor=#000000;strokeColor=#857C45;strokeWidth=3;fillColor=#82A2D3;" parent="1" vertex="1"><mxGeometry x="287.5" y="393" width="20" height="20" as="geometry"/></mxCell><mxCell id="Tu00z5FAIfqF0_bJ7bWg-7" value="" style="whiteSpace=wrap;html=1;aspect=fixed;shadow=0;fontColor=#000000;strokeColor=#857C45;strokeWidth=3;fillColor=#82A2D3;" parent="1" vertex="1"><mxGeometry x="320" y="365" width="20" height="20" as="geometry"/></mxCell><mxCell id="Tu00z5FAIfqF0_bJ7bWg-11" value="" style="endArrow=classic;startArrow=classic;html=1;rounded=0;fontColor=#000000;entryX=0.994;entryY=0.656;entryDx=0;entryDy=0;exitX=0.064;exitY=0.872;exitDx=0;exitDy=0;entryPerimeter=0;exitPerimeter=0;" parent="1" source="Tu00z5FAIfqF0_bJ7bWg-13" target="Tu00z5FAIfqF0_bJ7bWg-5" edge="1"><mxGeometry width="50" height="50" relative="1" as="geometry"><mxPoint x="200" y="560" as="sourcePoint"/><mxPoint x="250" y="510" as="targetPoint"/></mxGeometry></mxCell><mxCell id="Tu00z5FAIfqF0_bJ7bWg-12" value="" style="endArrow=classic;startArrow=classic;html=1;rounded=0;fontColor=#000000;entryX=1;entryY=0.5;entryDx=0;entryDy=0;exitX=-0.083;exitY=0.433;exitDx=0;exitDy=0;exitPerimeter=0;" parent="1" source="Tu00z5FAIfqF0_bJ7bWg-7" target="Tu00z5FAIfqF0_bJ7bWg-13" edge="1"><mxGeometry width="50" height="50" relative="1" as="geometry"><mxPoint x="315.12" y="405" as="sourcePoint"/><mxPoint x="287.5" y="400.12" as="targetPoint"/></mxGeometry></mxCell><mxCell id="Tu00z5FAIfqF0_bJ7bWg-13" value="" style="ellipse;whiteSpace=wrap;html=1;aspect=fixed;shadow=0;fontColor=#000000;strokeColor=#857C45;strokeWidth=3;fillColor=#82A2D3;" parent="1" vertex="1"><mxGeometry x="267.5" y="360" width="20" height="20" as="geometry"/></mxCell><mxCell id="Tu00z5FAIfqF0_bJ7bWg-14" value="" style="endArrow=classic;startArrow=classic;html=1;rounded=0;fontColor=#000000;entryX=0.753;entryY=0.861;entryDx=0;entryDy=0;exitX=0.578;exitY=-0.111;exitDx=0;exitDy=0;exitPerimeter=0;entryPerimeter=0;" parent="1" source="Tu00z5FAIfqF0_bJ7bWg-6" target="Tu00z5FAIfqF0_bJ7bWg-13" edge="1"><mxGeometry width="50" height="50" relative="1" as="geometry"><mxPoint x="292.92" y="396.83" as="sourcePoint"/><mxPoint x="262.08" y="393.17" as="targetPoint"/></mxGeometry></mxCell></root></mxGraphModel></diagram></mxfile>